<svg version="1.1" id="Layer_1" xmlns="http://www.w3.org/2000/svg" xmlns:xlink="http://www.w3.org/1999/xlink" x="0px" y="0px"
	 width="100%" viewBox="0 0 1053 863" enable-background="new 0 0 1053 863" xml:space="preserve">

<path fill="#F7F6F6" opacity="1.000000" stroke="none" 
	d="
M45.963127,524.773071 
	C45.916428,503.840149 45.869732,482.907227 45.917374,461.059814 
	C46.209908,392.922638 46.408104,325.699921 46.606300,258.477234 
	C51.694118,237.662277 62.673870,221.293152 81.822922,210.753143 
	C93.097084,204.547607 104.983200,201.610184 117.805588,201.726776 
	C133.224030,201.866974 146.659653,207.764221 159.548431,215.453430 
	C169.443481,221.356583 179.309402,227.309189 189.236435,233.158051 
	C206.270981,243.194519 223.328430,253.192322 240.404236,263.158447 
	C253.615707,270.869171 266.917755,278.425629 280.093140,286.197174 
	C296.846100,296.078979 313.485626,306.153046 330.224030,316.059753 
	C342.144653,323.115082 354.156891,330.015472 366.111725,337.013184 
	C381.451324,345.992004 396.771912,355.003387 412.105225,363.992981 
	C428.428497,373.562958 444.758545,383.121429 461.082916,392.689514 
	C478.153046,402.694702 495.219971,412.705322 513.306458,423.310577 
	C466.244751,451.112183 419.934784,478.469727 373.199768,506.078369 
	C311.892365,470.115234 250.262573,433.962982 188.463165,397.711243 
	C188.463165,479.750793 188.463165,560.490845 188.463165,641.230957 
	C188.998123,641.467651 189.533081,641.704407 190.068054,641.941101 
	C196.476883,638.194336 202.910294,634.488831 209.289474,630.692322 
	C222.713165,622.703186 236.120468,614.686401 249.512283,606.644043 
	C265.584747,596.991821 281.579163,587.208252 297.713440,577.660828 
	C307.953369,571.601440 318.473969,566.016357 328.712433,559.954651 
	C344.178894,550.797607 359.468842,541.342834 374.911499,532.145020 
	C384.837830,526.232788 394.941528,520.619202 404.897705,514.756226 
	C418.922821,506.497101 432.857849,498.085022 446.882080,489.824371 
	C459.227936,482.552368 471.680756,475.461761 484.017426,468.174438 
	C495.921906,461.142395 507.687744,453.875153 519.608643,446.871490 
	C529.959167,440.790436 540.505798,435.042969 550.849182,428.950043 
	C564.048706,421.174591 577.093628,413.137146 590.274414,405.329529 
	C603.160339,397.696533 616.162903,390.260590 629.059692,382.645844 
	C642.109924,374.940491 655.079834,367.099304 668.109558,359.359100 
	C682.699097,350.692352 697.339722,342.111359 711.915161,333.421051 
	C726.740784,324.581543 741.469238,315.578491 756.324463,306.789307 
	C768.506287,299.581909 780.832031,292.618408 793.056885,285.483185 
	C807.987122,276.768951 822.892944,268.012665 837.783325,259.230499 
	C858.936035,246.754868 879.905823,233.958054 901.267151,221.851425 
	C913.064392,215.165298 924.193115,207.322220 937.854614,203.877533 
	C966.423462,196.674042 1000.553955,211.634125 1014.112183,237.723328 
	C1020.844238,250.677460 1024.250488,264.113708 1024.032959,278.624054 
	C1023.885681,288.453552 1023.980469,298.286682 1023.740234,308.933838 
	C1023.340698,319.023407 1023.023682,328.297363 1023.024719,337.571289 
	C1023.026917,358.455505 1023.186584,379.339722 1023.282227,400.223938 
	C1023.263062,400.890167 1023.228577,401.556335 1023.226868,402.222595 
	C1022.992310,493.022644 1022.833374,583.822998 1022.490112,674.622620 
	C1022.362244,708.442383 1022.518188,742.289062 1021.171021,776.068665 
	C1020.377380,795.969788 1011.050537,812.645630 995.351562,825.422546 
	C986.475159,832.646729 976.674438,837.570740 965.294189,839.656860 
	C947.573303,842.905273 930.962891,840.344849 915.447510,831.238342 
	C899.031799,821.603333 882.679443,811.858948 866.368347,802.047668 
	C846.318420,789.987671 826.386658,777.731079 806.318298,765.702026 
	C782.997986,751.723633 759.571228,737.922974 736.216553,724.001770 
	C717.662842,712.942200 699.132446,701.843506 680.620056,690.715027 
	C656.634521,676.296448 632.700256,661.792603 608.699585,647.399414 
	C592.374451,637.609192 575.972229,627.947693 559.613037,618.214233 
	C559.218079,617.979309 558.923706,617.575256 558.313965,616.994263 
	C566.012390,612.391479 573.528076,607.869507 581.071167,603.393860 
	C599.346252,592.550415 617.600098,581.670593 635.926514,570.914490 
	C653.249023,560.747620 671.155273,551.470215 687.814026,540.321167 
	C696.412964,534.566223 701.806030,535.796509 709.740845,541.033569 
	C725.786804,551.623962 742.841614,560.674683 759.347107,570.582458 
	C782.774719,584.645325 806.042358,598.974548 829.456909,613.059387 
	C841.884644,620.535156 854.486633,627.720703 866.992432,635.066956 
	C871.594543,637.770386 876.146362,640.559570 881.959717,644.054138 
	C881.959717,561.771729 881.959717,480.962341 881.959717,399.551392 
	C878.161804,401.613892 874.260620,403.590057 870.496765,405.800140 
	C849.902161,417.892792 829.387329,430.121887 808.755859,442.151031 
	C788.397278,454.021149 767.843506,465.557800 747.537048,477.515503 
	C723.090210,491.911438 698.879761,506.708862 674.444763,521.125244 
	C651.166687,534.859070 627.680176,548.239319 604.379395,561.934998 
	C580.927979,575.719299 557.608154,589.727295 534.201538,603.588074 
	C512.235901,616.595703 490.229614,629.534363 468.246185,642.511902 
	C442.262543,657.851074 416.264343,673.165710 390.312561,688.558594 
	C378.403534,695.622253 366.650635,702.949951 354.718048,709.972839 
	C340.952301,718.074524 326.975220,725.818848 313.252625,733.991577 
	C288.689209,748.620789 264.264099,763.482056 239.749741,778.193848 
	C220.712250,789.618835 201.615707,800.945496 182.567520,812.352783 
	C173.239365,817.939087 164.097321,823.851196 154.622803,829.174072 
	C145.054077,834.549805 134.887009,837.730103 123.672943,838.660889 
	C109.476471,839.839172 96.432571,836.915649 84.291840,830.316528 
	C66.321327,820.548706 53.932411,805.610413 49.852230,785.451660 
	C47.415112,773.410583 47.734993,760.811401 46.928741,747.575623 
	C47.027142,675.636597 47.018166,604.585083 46.958920,533.533630 
	C46.957642,531.998840 46.379795,530.464661 46.070915,528.930176 
	C46.023964,528.545105 45.977013,528.159973 46.220032,527.341064 
	C46.327713,526.195862 46.145424,525.484497 45.963127,524.773071 
z"/>
<path fill="#F7F6F6" opacity="1.000000" stroke="none" 
	d="
M664.148071,120.326233 
	C665.047913,126.606453 665.973450,132.460190 666.526855,138.348907 
	C668.770752,162.227173 664.605225,185.235886 654.787292,206.860703 
	C643.490295,231.743134 626.392944,251.982895 602.735168,266.428802 
	C588.759399,274.962708 573.922852,281.542847 557.849243,283.674774 
	C545.014221,285.377167 531.813110,284.621033 518.781128,284.448944 
	C506.514893,284.286926 495.084290,280.120697 484.001404,275.329468 
	C459.440216,264.711487 439.871185,248.058472 425.209503,225.632492 
	C413.973206,208.445801 407.115051,189.807434 404.192352,169.376175 
	C400.955902,146.751221 403.181335,124.918190 410.335388,103.408409 
	C416.728577,84.186188 427.220520,67.291382 441.259094,52.920601 
	C455.688629,38.149612 472.781677,27.380575 492.518494,20.293999 
	C510.685333,13.771136 529.150879,12.734658 547.887024,13.818820 
	C562.485657,14.663570 576.218323,19.371307 589.568481,25.485826 
	C606.579712,33.277229 620.999756,44.383759 633.180298,58.311520 
	C648.742676,76.106216 658.825500,96.830444 664.148071,120.326233 
z"/>
<path fill="#A26936" opacity="1.000000" stroke="none" 
	d="
M46.270973,258.697449 
	C46.408104,325.699921 46.209908,392.922638 45.873062,460.596008 
	C45.476803,458.775482 45.001095,456.504822 44.995388,454.232971 
	C44.939377,431.945129 45.043625,409.656708 44.943321,387.369171 
	C44.772785,349.475891 44.423126,311.583252 44.329079,273.689941 
	C44.316860,268.767181 45.373886,263.841827 46.270973,258.697449 
z"/>
<path fill="#F18627" opacity="1.000000" stroke="none" 
	d="
M45.971909,529.146851 
	C46.379795,530.464661 46.957642,531.998840 46.958920,533.533630 
	C47.018166,604.585083 47.027142,675.636597 46.915550,747.071899 
	C46.664131,745.654175 46.430893,743.852783 46.429955,742.051270 
	C46.409172,702.133789 46.421124,662.216370 46.401676,622.298889 
	C46.399982,618.817566 46.223942,615.336304 46.149246,610.915771 
	C46.171322,605.495605 46.188255,601.014587 46.172173,596.533752 
	C46.092365,574.301819 46.003853,552.069824 45.918411,529.837891 
	C45.918411,529.837891 45.872902,529.363586 45.971909,529.146851 
z"/>
<path fill="#F28A2E" opacity="1.000000" stroke="none" 
	d="
M1023.586914,399.911896 
	C1023.186584,379.339722 1023.026917,358.455505 1023.024719,337.571289 
	C1023.023682,328.297363 1023.340698,319.023407 1023.718994,309.406006 
	C1023.993042,325.808258 1024.112793,342.553955 1024.113647,359.299683 
	C1024.114380,372.733063 1023.971008,386.166473 1023.586914,399.911896 
z"/>
<path fill="#A26936" opacity="1.000000" stroke="none" 
	d="
M45.764824,530.226013 
	C46.003853,552.069824 46.092365,574.301819 46.172173,596.533752 
	C46.188255,601.014587 46.171322,605.495605 46.139107,610.439453 
	C45.892906,610.123718 45.488346,609.344910 45.488850,608.566284 
	C45.505741,582.582214 45.561317,556.598206 45.764824,530.226013 
z"/>
<path fill="#A26936" opacity="1.000000" stroke="none" 
	d="
M45.790932,524.980469 
	C46.145424,525.484497 46.327713,526.195862 46.239948,527.049194 
	C45.852840,526.523315 45.735783,525.855591 45.790932,524.980469 
z"/>
</svg>