<?xml version="1.0" encoding="UTF-8"?>
<svg id="Capa_1" data-name="Capa 1" xmlns="http://www.w3.org/2000/svg" version="1.1" viewBox="0 0 512 512">
  <defs>
    <style>
      .cls-1 {

        stroke-width: 0px;
      }
    </style>
  </defs>
  <g>
    <path fill="#F18627" class="cls-1" d="M198.9,339.1c2.1-3.7,2.5-8,1.4-12-1.2-4.1-3.8-7.4-7.5-9.5l-76.4-42.4c-6.4-3.5-10.3-10.2-10.3-17.5s3.9-14,10.3-17.5l76.4-42.4c5-2.8,8.1-8.1,8.1-13.8s-.7-5.3-2-7.6c-4.2-7.6-13.8-10.4-21.5-6.2l-76.4,42.4c-16.4,9.1-26.5,26.4-26.5,45.1s10.2,36,26.5,45.1l76.4,42.4c7.6,4.2,17.3,1.5,21.5-6.2h0Z"/>
    <path fill="#F18627" class="cls-1" d="M313.1,181.2c-2.1,3.7-2.5,8-1.4,12,1.2,4.1,3.8,7.4,7.5,9.5l76.4,42.4c6.4,3.5,10.3,10.2,10.3,17.5,0,7.3-3.9,14-10.3,17.5l-76.4,42.4c-5,2.8-8.1,8.1-8.1,13.8s.7,5.3,2,7.6c4.2,7.6,13.8,10.4,21.5,6.2l76.4-42.4c16.4-9.1,26.5-26.4,26.5-45.1,0-18.7-10.2-36-26.5-45.1l-76.4-42.4c-7.6-4.2-17.3-1.5-21.5,6.2h0Z"/>
    <path fill="#F18627" class="cls-1" d="M274.6,152.3l-69.8,195.9c-3.6,10.1.8,21,9.7,24.1,8.9,3.2,19.2-2.5,22.8-12.6l69.8-195.9c3.6-10.1-.8-21-9.7-24.1-8.9-3.2-19.2,2.5-22.8,12.6Z"/>
  </g>
  <path fill="#F18627" class="cls-1" d="M331,467.1c-4.8-7.4-13.3-11.7-22.1-10.9-17.5,1.5-35.2,2.2-52.8,2.2-35,0-69.3-2.8-103.1-8.5-46.4-7.8-82.8-44.2-90.6-90.6-5.7-34-8.6-68.7-8.6-103.1s2.9-70.1,8.7-104.4h0c3.7-22.2,14.2-42.4,30.5-58.6l.5-.5s.2-.2.4-.4c15.9-15.8,35.9-26.1,57.8-29.7,34.4-5.8,69.5-8.7,104.4-8.7s69.1,2.8,103.1,8.6c46.4,7.8,82.8,44.2,90.6,90.6,5.7,34,8.6,68.7,8.6,103.1s-1,33.6-2.1,50.6c0,.6,0,1.3,0,1.9-.8,31.2,45.8,33.2,48.3,2.1,1.5-18.2,2.3-36.5,2.3-54.8,0-37.6-3.1-74.5-9.2-111.1-11.2-66.9-63.7-119.3-130.6-130.5-36.6-6.1-74-9.2-111.1-9.2s-75.4,3.2-112.5,9.5c-31.7,5.3-60.7,20.2-83.8,43l-.8.7c-23.6,23.5-38.9,52.8-44.3,85.1-6.2,37.1-9.5,74.9-9.5,112.5s3.1,74.5,9.2,111.1c11.2,66.9,63.7,119.3,130.6,130.5h0c36.6,6.1,73.9,9.1,111.1,9.1s38-.8,57.2-2.4,28-21.7,18.1-36.7-.2-.3-.3-.5Z"/>
  <path fill="#F18627" class="cls-1" d="M405.2,346.8l-41,20.5c-7.6,3.8-12.4,11.6-12.4,20.1v39.5c-.7,36.6,27.6,67.3,64.1,69.7,37.3,1.9,69-26.8,70.9-64,0-1.2,0-2.3,0-3.5v-41.6c0-8.5-4.8-16.3-12.4-20.1l-41-20.5c-8.9-4.4-19.3-4.4-28.2,0ZM457.3,389c1.5.8,2.5,2.3,2.5,4v34.6c.3,21.7-16.1,40-37.7,42-22.3,1.5-41.7-15.3-43.2-37.6,0-1,0-1.9,0-2.9v-36c0-1.7,1-3.2,2.5-4l36-18c1.3-.6,2.7-.6,4,0l36.1,18Z"/>
</svg>
