<svg width="22" height="6" viewBox="0 0 22 6" xmlns="http://www.w3.org/2000/svg">
<path d="M19.125 0.291664C18.0091 0.291664 17.0666 0.963331 16.6441 1.91666H13.4808C13.0583 0.963331 12.1158 0.291664 11 0.291664C9.88413 0.291664 8.94163 0.963331 8.51912 1.91666H5.35579C4.93329 0.963331 3.99079 0.291664 2.87496 0.291664C1.37996 0.291664 0.166626 1.505 0.166626 3C0.166626 4.495 1.37996 5.70833 2.87496 5.70833C3.99079 5.70833 4.93329 5.03666 5.35579 4.08333H8.51912C8.94163 5.03666 9.88413 5.70833 11 5.70833C12.1158 5.70833 13.0583 5.03666 13.4808 4.08333H16.6441C17.0666 5.03666 18.0091 5.70833 19.125 5.70833C20.62 5.70833 21.8333 4.495 21.8333 3C21.8333 1.505 20.62 0.291664 19.125 0.291664Z"/>
</svg>
