<?xml version="1.0" encoding="utf-8"?>
<!-- Generator: Adobe Illustrator 28.3.0, SVG Export Plug-In . SVG Version: 6.00 Build 0)  -->
<svg version="1.1" id="Capa_1" xmlns="http://www.w3.org/2000/svg" xmlns:xlink="http://www.w3.org/1999/xlink" x="0px" y="0px"
	 viewBox="0 0 512 512" style="enable-background:new 0 0 512 512;" xml:space="preserve">
<path fill="#F18627" d="M396.7,491.7c-13.5,0-24.4-11-24.4-24.4v-121l-3.8-1.2c-38-12.3-63.6-47.4-63.6-87.3c0-39.9,25.5-75,63.6-87.3l3.8-1.2v-121
	c0-13.5,11-24.4,24.4-24.4s24.4,11,24.4,24.4v121l3.8,1.2c38,12.3,63.6,47.4,63.6,87.3c0,39.9-25.5,75-63.6,87.3l-3.8,1.2v121
	C421.1,480.7,410.2,491.7,396.7,491.7z M396.7,214.8c-23.7,0-42.9,19.2-42.9,42.9c0,23.7,19.2,42.9,42.9,42.9s42.9-19.2,42.9-42.9
	C439.6,234.1,420.3,214.8,396.7,214.8z"/>
<path fill="#F18627"  d="M419.1,344.8l5.2-1.6c37.2-12,62.2-46.4,62.2-85.4s-25-73.3-62.2-85.4l-5.2-1.6V48.3c0-12.3-10.1-22.4-22.4-22.4
	S374.2,36,374.2,48.3v122.4l-5.2,1.6c-37.2,12-62.2,46.4-62.2,85.4s25,73.3,62.2,85.4l5.2,1.6v122.4c0,12.3,10.1,22.4,22.4,22.4
	s22.4-10.1,22.4-22.4V344.8z M396.7,302.6c-24.8,0-44.9-20.1-44.9-44.9c0-24.8,20.1-44.9,44.9-44.9c24.8,0,44.9,20.1,44.9,44.9
	C441.6,282.5,421.5,302.6,396.7,302.6z"/>
<path fill="#F18627" d="M45,222.3c-13.5,0-24.4-11-24.4-24.4c0-13.5,11-24.4,24.4-24.4h142.2c11.3,0,20.4-9.2,20.4-20.4V93.1
	c0-11.3-9.2-20.4-20.4-20.4H45c-13.5,0-24.4-11-24.4-24.4c0-13.5,11-24.4,24.4-24.4h142.2c38.2,0,69.3,31.1,69.3,69.3V153
	c0,38.2-31.1,69.3-69.3,69.3H45z"/>
<path fill="#F18627" d="M254.5,93.1c0-37.1-30.2-67.3-67.3-67.3H45c-12.3,0-22.4,10.1-22.4,22.4S32.6,70.6,45,70.6h142.2
	c12.3,0,22.4,10.1,22.4,22.4V153c0,12.3-10.1,22.4-22.4,22.4H45c-12.3,0-22.4,10.1-22.4,22.4s10.1,22.4,22.4,22.4h142.2
	c37.1,0,67.3-30.2,67.3-67.3V93.1z"/>
<path fill="#F18627" d="M45,491.7c-13.5,0-24.4-11-24.4-24.4c0-13.5,11-24.4,24.4-24.4h142.2c11.3,0,20.4-9.2,20.4-20.4v-59.9
	c0-11.3-9.2-20.4-20.4-20.4H45c-13.5,0-24.4-11-24.4-24.4c0-13.5,11-24.4,24.4-24.4h142.2c38.2,0,69.3,31.1,69.3,69.3v59.9
	c0,38.2-31.1,69.3-69.3,69.3H45z"/>
<path fill="#F18627" d="M254.5,362.5c0-37.1-30.2-67.3-67.3-67.3H45c-12.3,0-22.4,10.1-22.4,22.4S32.6,340,45,340h142.2c12.3,0,22.4,10.1,22.4,22.4
	v59.9c0,12.3-10.1,22.4-22.4,22.4H45c-12.3,0-22.4,10.1-22.4,22.4s10.1,22.4,22.4,22.4h142.2c37.1,0,67.3-30.2,67.3-67.3V362.5z"/>
</svg>
