<?xml version="1.0" encoding="utf-8"?>
<!-- Generator: Adobe Illustrator 28.3.0, SVG Export Plug-In . SVG Version: 6.00 Build 0)  -->
<svg version="1.1" id="Capa_1" xmlns="http://www.w3.org/2000/svg" xmlns:xlink="http://www.w3.org/1999/xlink" x="0px" y="0px"
	 viewBox="0 0 512 512" style="enable-background:new 0 0 512 512;" xml:space="preserve">
<path fill="#F18627"  d="M500,101.5c0-49.4-40.1-89.5-89.5-89.5h-24.4c-13.5,0-24.4,10.9-24.4,24.4s10.9,24.4,24.4,24.4h24.4
	c22.5,0,40.7,18.2,40.7,40.7v24.4c0,13.5,10.9,24.4,24.4,24.4s24.4-10.9,24.4-24.4V101.5z"/>
<path fill="#F18627"  d="M12,125.9c0,13.5,10.9,24.4,24.4,24.4s24.4-10.9,24.4-24.4v-24.4c0-22.5,18.2-40.7,40.7-40.7h24.4
	c13.5,0,24.4-10.9,24.4-24.4S139.3,12,125.9,12h-24.4C52,12,12,52.1,12,101.5V125.9z"/>
<path fill="#F18627"  d="M12,410.5C12,459.9,52,500,101.5,500h24.4c13.5,0,24.4-10.9,24.4-24.4s-10.9-24.4-24.4-24.4h-24.4
	c-22.5,0-40.7-18.2-40.7-40.7v-24.4c0-13.5-10.9-24.4-24.4-24.4S12,372.7,12,386.1V410.5z"/>
<path fill="#F18627"  d="M500,410.5v-24.4c0-13.5-10.9-24.4-24.4-24.4s-24.4,10.9-24.4,24.4v24.4c0,22.5-18.2,40.7-40.7,40.7h-24.4
	c-13.5,0-24.4,10.9-24.4,24.4s10.9,24.4,24.4,24.4h24.4C459.9,500,500,459.9,500,410.5z"/>
<path fill="#F18627"  d="M230.5,123.8l-74.1,37c-13.8,6.9-22.4,21-22.4,36.4v71.3c-1.2,66.1,49.8,121.5,115.8,125.8c67.3,3.4,124.6-48.4,128-115.7
	c0.1-2.1,0.2-4.2,0.2-6.3v-75.2c0-15.4-8.7-29.5-22.4-36.4l-74.1-37C265.4,115.7,246.6,115.7,230.5,123.8z M324.7,200
	c2.7,1.4,4.5,4.2,4.5,7.2v62.5c0.6,39.2-29.1,72.3-68.2,75.8c-40.3,2.8-75.3-27.7-78.1-68c-0.1-1.7-0.2-3.5-0.2-5.2v-65.1
	c0-3.1,1.7-5.9,4.5-7.2l65.1-32.5c2.3-1.1,5-1.1,7.2,0L324.7,200z"/>
</svg>
