<svg width="20" height="20" viewBox="0 0 20 20"  xmlns="http://www.w3.org/2000/svg">
<path fill-rule="evenodd" clip-rule="evenodd" d="M17.5023 10C17.5023 10.34 17.4723 10.66 17.4323 10.98L19.5423 12.63C19.7323 12.78 19.7823 13.05 19.6623 13.27L17.6623 16.73C17.5723 16.89 17.4023 16.98 17.2323 16.98C17.1723 16.98 17.1123 16.97 17.0523 16.95L14.5623 15.95C14.0423 16.34 13.4823 16.68 12.8723 16.93L12.4923 19.58C12.4623 19.82 12.2523 20 12.0023 20H8.00228C7.75228 20 7.54228 19.82 7.51228 19.58L7.13228 16.93C6.52228 16.68 5.96228 16.35 5.44228 15.95L2.95228 16.95C2.90228 16.97 2.84228 16.98 2.78228 16.98C2.60228 16.98 2.43228 16.89 2.34228 16.73L0.342281 13.27C0.222281 13.05 0.272281 12.78 0.462281 12.63L2.57228 10.98C2.53228 10.66 2.50228 10.33 2.50228 10C2.50228 9.67 2.53228 9.34 2.57228 9.02L0.462281 7.37C0.272281 7.22 0.212281 6.95 0.342281 6.73L2.34228 3.27C2.43228 3.11 2.60228 3.02 2.77228 3.02C2.83228 3.02 2.89228 3.03 2.95228 3.05L5.44228 4.05C5.96228 3.66 6.52228 3.32 7.13228 3.07L7.51228 0.42C7.54228 0.18 7.75228 0 8.00228 0H12.0023C12.2523 0 12.4623 0.18 12.4923 0.42L12.8723 3.07C13.4823 3.32 14.0423 3.65 14.5623 4.05L17.0523 3.05C17.1023 3.03 17.1623 3.02 17.2223 3.02C17.4023 3.02 17.5723 3.11 17.6623 3.27L19.6623 6.73C19.7823 6.95 19.7323 7.22 19.5423 7.37L17.4323 9.02C17.4723 9.34 17.5023 9.66 17.5023 10ZM15.5023 10C15.5023 9.79 15.4923 9.58 15.4523 9.27L15.3123 8.14L16.2023 7.44L17.2723 6.59L16.5723 5.38L15.3023 5.89L14.2423 6.32L13.3323 5.62C12.9323 5.32 12.5323 5.09 12.1023 4.91L11.0423 4.48L10.8823 3.35L10.6923 2H9.30228L9.10228 3.35L8.94228 4.48L7.88228 4.91C7.47228 5.08 7.06228 5.32 6.63228 5.64L5.73228 6.32L4.69228 5.9L3.42228 5.39L2.72228 6.6L3.80228 7.44L4.69228 8.14L4.55228 9.27C4.52228 9.57 4.50228 9.8 4.50228 10C4.50228 10.2 4.52228 10.43 4.55228 10.74L4.69228 11.87L3.80228 12.57L2.72228 13.41L3.42228 14.62L4.69228 14.11L5.75228 13.68L6.66228 14.38C7.06228 14.68 7.46228 14.91 7.89228 15.09L8.95228 15.52L9.11228 16.65L9.30228 18H10.7023L10.9023 16.65L11.0623 15.52L12.1223 15.09C12.5323 14.92 12.9423 14.68 13.3723 14.36L14.2723 13.68L15.3123 14.1L16.5823 14.61L17.2823 13.4L16.2023 12.56L15.3123 11.86L15.4523 10.73C15.4823 10.43 15.5023 10.21 15.5023 10ZM10.0023 6C7.79228 6 6.00228 7.79 6.00228 10C6.00228 12.21 7.79228 14 10.0023 14C12.2123 14 14.0023 12.21 14.0023 10C14.0023 7.79 12.2123 6 10.0023 6ZM8.00228 10C8.00228 11.1 8.90228 12 10.0023 12C11.1023 12 12.0023 11.1 12.0023 10C12.0023 8.9 11.1023 8 10.0023 8C8.90228 8 8.00228 8.9 8.00228 10Z" />
</svg>
